<svg width="20" height="20" viewBox="0 0 20 20" fill="none" xmlns="http://www.w3.org/2000/svg">
<g opacity="0.65">
<path fill-rule="evenodd" clip-rule="evenodd" d="M10 20C15.5228 20 20 15.5228 20 10C20 4.47715 15.5228 0 10 0C4.47715 0 0 4.47715 0 10C0 15.5228 4.47715 20 10 20ZM10 19.0909C15.0208 19.0909 19.0909 15.0208 19.0909 10C19.0909 4.97923 15.0208 0.909091 10 0.909091C4.97923 0.909091 0.909091 4.97923 0.909091 10C0.909091 15.0208 4.97923 19.0909 10 19.0909Z" fill="#8097B1"/>
<path d="M5.64435 12.2523C5.64435 12.2523 6.96321 14.8928 10.0333 14.8878C13.1033 14.8828 14.2761 12.2723 14.2761 12.2723" stroke="#8097B1" stroke-width="1.2"/>
<circle cx="12.6363" cy="7.70194" r="0.909091" fill="#8097B1" stroke="#8097B1" stroke-width="0.6"/>
<circle cx="7.18174" cy="7.70194" r="0.909091" fill="#8097B1" stroke="#8097B1" stroke-width="0.6"/>
</g>
</svg>
